<svg xmlns="http://www.w3.org/2000/svg" xmlns:xlink="http://www.w3.org/1999/xlink" width="1441.001" height="1178.002" viewBox="0 0 1441.001 1178.002">
  <defs>
    <linearGradient id="linear-gradient" x1="0.5" x2="0.5" y2="1" gradientUnits="objectBoundingBox">
      <stop offset="0" stop-color="#4f15f3"/>
      <stop offset="1" stop-color="#21b8b8"/>
    </linearGradient>
  </defs>
  <g id="BG" transform="translate(0.501 -764.641)">
    <path id="Subtraction_4" data-name="Subtraction 4" d="M1255,540.643H-186V-626.95c28.38-3.353,57.077-5.928,85.3-7.655,29.861-1.828,60.017-2.755,89.627-2.755,37.34,0,74.915,1.474,111.681,4.381,19.2,1.518,38.571,3.458,57.574,5.765,19.529,2.371,39.237,5.2,58.577,8.406,19.85,3.292,39.858,7.073,59.468,11.239,20.119,4.274,40.389,9.074,60.247,14.266,20.349,5.32,40.843,11.2,60.91,17.483,20.558,6.435,41.237,13.466,61.462,20.9,60.15,22.1,119.969,42.753,177.794,61.4,53.538,17.261,106.679,33.218,157.945,47.429,46.983,13.023,93.485,24.881,138.214,35.244,40.467,9.375,80.369,17.733,118.6,24.841,39.85,7.409,78.68,13.61,115.411,18.431,30.8,4.043,60.478,7.164,88.2,9.276V540.642Z" transform="translate(185.5 1402)" fill="url(#linear-gradient)"/>
    <path id="Subtraction_2" data-name="Subtraction 2" d="M1584.5,501.642H144.5V-328.628c10.168.507,20.923.764,31.966.764A945.462,945.462,0,0,0,281-334.18c21.969-2.467,44.971-5.688,68.367-9.573,25.631-4.257,52.369-9.418,79.474-15.34,131.065-28.633,277.252-76.2,434.5-141.382,19.856-8.23,40.09-16.007,60.14-23.114,19.553-6.931,39.471-13.417,59.2-19.279,19.213-5.708,38.781-10.983,58.159-15.676,18.841-4.564,38.021-8.7,57.01-12.306,18.447-3.5,37.207-6.582,55.759-9.166,18-2.507,36.3-4.614,54.4-6.261,17.539-1.6,35.35-2.8,52.939-3.585,17.007-.759,34.292-1.144,51.375-1.144,24.776,0,49.912.809,74.71,2.406,23.428,1.509,47.149,3.756,70.5,6.68,21.941,2.745,44.127,6.157,65.941,10.141,20.342,3.714,40.873,8.019,61.023,12.794V501.641h0Z" transform="translate(-144 1441)" fill="rgba(55,135,255,0.42)"/>
  </g>
</svg>
