<svg xmlns="http://www.w3.org/2000/svg" width="193" height="44.573" viewBox="0 0 193 44.573">
  <g id="logo-2" transform="translate(-27.21 -35.76)">
    <path id="Path_522" data-name="Path 522" d="M54.464,45.71c.563,0,.751.2.751.751V58.852h6.368c.548,0,.751.2.751.751v1.1c0,.548-.2.751-.751.751H53.2c-.548,0-.767-.2-.767-.751V46.461c0-.548.219-.751.767-.751Z" transform="translate(14.237 5.617)" fill="#fff"/>
    <path id="Path_523" data-name="Path 523" d="M62.31,51.289c0-3.614,2.284-5.789,6.258-5.789s6.258,2.175,6.258,5.789v4.819c0,3.614-2.3,5.789-6.258,5.789s-6.258-2.175-6.258-5.789Zm9.888,0c0-2.034-1.267-3.129-3.551-3.129s-3.536,1.111-3.536,3.129v4.85c0,2.05,1.252,3.129,3.536,3.129S72.2,58.141,72.2,56.139Z" transform="translate(19.815 5.498)" fill="#fff"/>
    <path id="Path_524" data-name="Path 524" d="M86.5,52.97c.61,0,.751.2.751.751v2.973a4.693,4.693,0,0,1-1.658,3.692A6.821,6.821,0,0,1,80.9,61.856c-4.052,0-6.258-2.175-6.258-5.789v-4.85c0-3.567,2.284-5.757,6.258-5.757,3.129,0,5.163,1.236,6.023,3.708a.673.673,0,0,1-.469.97l-1.22.422c-.532.188-.751.078-.939-.469a3.223,3.223,0,0,0-3.4-2.034c-2.3,0-3.551,1.111-3.551,3.129v4.975c0,2.05,1.267,3.129,3.551,3.129s3.692-1.048,3.692-2.581V55.551H81.2c-.563,0-.767-.219-.767-.767V53.721c0-.548.2-.751.767-.751Z" transform="translate(26.775 5.476)" fill="#fff"/>
    <path id="Path_525" data-name="Path 525" d="M86.83,51.289c0-3.614,2.284-5.789,6.258-5.789s6.258,2.175,6.258,5.789v4.819c0,3.614-2.3,5.789-6.258,5.789s-6.258-2.175-6.258-5.789Zm9.872,0c0-2.034-1.267-3.129-3.536-3.129s-3.551,1.111-3.551,3.129v4.85c0,2.05,1.267,3.129,3.551,3.129S96.7,58.141,96.7,56.139Z" transform="translate(33.657 5.498)" fill="#fff"/>
    <path id="Path_526" data-name="Path 526" d="M99.54,46.164c0-.344.11-.454.454-.454h.72c.344,0,.422.11.422.454V61c0,.344,0,.454-.422.454h-.72c-.344,0-.454-.11-.454-.454Z" transform="translate(40.832 5.617)" fill="#fff"/>
    <path id="Path_527" data-name="Path 527" d="M111.939,45.71a4.913,4.913,0,1,1,0,9.825h-4.694V61c0,.344-.078.454-.407.454H106.1c-.329,0-.454-.11-.454-.454V46.164c0-.344.125-.454.454-.454Zm-.141,8.276a3.411,3.411,0,0,0,0-6.821h-4.694v6.821Z" transform="translate(44.281 5.617)" fill="#fff"/>
    <path id="Path_528" data-name="Path 528" d="M122.787,45.522a5.648,5.648,0,0,1,5.82,3.411c.125.25,0,.454-.25.579l-.688.313c-.282.11-.391.094-.563-.2a4.256,4.256,0,0,0-4.318-2.566c-2.644,0-4.083,1.048-4.083,2.926a2.378,2.378,0,0,0,1.987,2.409,10.623,10.623,0,0,0,2.6.5,10.764,10.764,0,0,1,3.129.641,3.52,3.52,0,0,1,2.441,3.708c0,2.926-2.128,4.694-6.039,4.694a5.648,5.648,0,0,1-5.992-3.8.422.422,0,0,1,.266-.595l.688-.25a.422.422,0,0,1,.563.266,4.475,4.475,0,0,0,4.475,2.816c2.957,0,4.412-1.033,4.412-3.129a2.331,2.331,0,0,0-1.83-2.394,10.952,10.952,0,0,0-2.488-.438l-1.69-.219a14.863,14.863,0,0,1-1.565-.422,4.115,4.115,0,0,1-1.392-.735,3.817,3.817,0,0,1-1.252-2.988C117.123,47.306,119.173,45.522,122.787,45.522Z" transform="translate(50.566 5.492)" fill="#fff"/>
    <path id="Path_529" data-name="Path 529" d="M130.471,56.1a4.349,4.349,0,0,0,8.683,0V46.164c0-.344.11-.454.454-.454h.72c.344,0,.454.11.454.454v9.919c0,3.551-2.1,5.695-5.961,5.695s-5.961-2.143-5.961-5.695V46.164c0-.344.11-.454.438-.454h.735c.329,0,.438.11.438.454Z" transform="translate(57.384 5.617)" fill="#fff"/>
    <path id="Path_530" data-name="Path 530" d="M155.265,45.711c.344,0,.454.11.454.454V61c0,.344-.11.454-.454.454h-.657c-.329,0-.438-.11-.438-.454V51.969a29.056,29.056,0,0,1,.267-3.934l-.095.007a28.162,28.162,0,0,1-1.705,3.458l-3.364,5.93a.548.548,0,0,1-.516.344h-.438a.579.579,0,0,1-.532-.344l-3.411-5.992a25.142,25.142,0,0,1-1.565-3.411h-.094a34.045,34.045,0,0,1,.25,3.958V61c0,.344-.11.454-.454.454h-.61c-.344,0-.454-.11-.454-.454V46.165c0-.344.11-.454.454-.454h.563a.626.626,0,0,1,.626.36l5.476,9.731,5.445-9.637c.172-.329.266-.375.61-.375Z" transform="translate(64.492 5.616)" fill="#fff"/>
    <path id="Path_531" data-name="Path 531" d="M40.868,63.593V74.9a1.635,1.635,0,1,1-3.27,0v-11.3a2.769,2.769,0,0,0,1.565.532,2.691,2.691,0,0,0,1.705-.548Zm13.924-3.27a1.565,1.565,0,0,0-1.565,1.565v1.971a1.635,1.635,0,0,0,3.27,0V61.966a1.565,1.565,0,0,0-1.705-1.643ZM34.047,67.88a2.816,2.816,0,0,1-1.565-.532V78.691a1.643,1.643,0,0,0,3.286,0V67.426a2.863,2.863,0,0,1-1.721.454ZM49.692,56.928a1.565,1.565,0,0,0-1.643,1.565v8.714a1.643,1.643,0,0,0,3.286,0V58.6a1.565,1.565,0,0,0-1.721-1.643ZM44.5,60.276a2.863,2.863,0,0,1-1.643-.532V71.118a1.643,1.643,0,1,0,3.286,0V59.76a2.769,2.769,0,0,1-1.721.548Zm-14,8.714V37.215a1.471,1.471,0,0,0-1.471-1.455h-.344a1.471,1.471,0,0,0-1.471,1.455V68.991a1.471,1.471,0,0,0,1.471,1.471h.344A1.471,1.471,0,0,0,30.5,68.991Zm3.724-2.315h-.344A1.471,1.471,0,0,1,32.4,65.2V41a1.471,1.471,0,0,1,1.471-1.455h.344A1.471,1.471,0,0,1,35.69,41V65.236a1.471,1.471,0,0,1-1.471,1.471ZM39.4,62.951h-.36A1.455,1.455,0,0,1,37.583,61.5V44.756a1.455,1.455,0,0,1,1.455-1.471h.36a1.471,1.471,0,0,1,1.455,1.471V61.5A1.455,1.455,0,0,1,39.4,62.951Zm5.179-3.833h-.329a1.471,1.471,0,0,1-1.471-1.455V48.652a1.471,1.471,0,0,1,1.471-1.565h.344a1.471,1.471,0,0,1,1.471,1.471v9.074a1.471,1.471,0,0,1-1.471,1.486Zm5.194-3.364h-.344a1.471,1.471,0,0,1-1.471-1.471V51.953A1.471,1.471,0,0,1,49.426,50.5h.344a1.471,1.471,0,0,1,1.471,1.455v2.331a1.471,1.471,0,0,1-1.455,1.471Z" transform="translate(0 0)" fill="#fff"/>
  </g>
</svg>
